<svg width="35" height="35" viewBox="0 0 35 35" fill="none" xmlns="http://www.w3.org/2000/svg">
<path d="M25.8915 20.417C27.7027 20.417 29.171 21.8852 29.171 23.6966V25.036C29.171 25.8722 28.9096 26.6874 28.4234 27.3677C26.1691 30.5223 22.4879 32.0852 17.4999 32.0852C12.511 32.0852 8.83165 30.5218 6.58267 27.3653C6.09855 26.6859 5.83838 25.8725 5.83838 25.0381V23.6966C5.83838 21.8852 7.3067 20.417 9.11798 20.417H25.8915ZM17.4999 2.9238C21.527 2.9238 24.7916 6.18839 24.7916 10.2155C24.7916 14.2426 21.527 17.5072 17.4999 17.5072C13.4728 17.5072 10.2082 14.2426 10.2082 10.2155C10.2082 6.18839 13.4728 2.9238 17.4999 2.9238Z" fill="#333333"/>
</svg>
