<svg width="35" height="35" viewBox="0 0 35 35" fill="none" xmlns="http://www.w3.org/2000/svg">
<path d="M8.97794 13.5962L8.97443 13.5988L8.96867 13.6032L8.95355 13.6148C8.94189 13.6238 8.92712 13.6354 8.90949 13.6496C8.87423 13.678 8.82741 13.7168 8.77095 13.7662C8.65809 13.8648 8.50614 14.0061 8.33044 14.1911C7.9795 14.5605 7.53029 15.108 7.10944 15.8417C6.26041 17.3219 5.54695 19.5279 5.94799 22.479C6.34362 25.3906 7.56623 27.8251 9.63529 29.5225C11.697 31.2139 14.4889 32.0833 17.8645 32.0833C21.3463 32.0833 24.1244 30.7787 25.9644 28.5394C27.7876 26.3209 28.601 23.2956 28.4064 19.9879C28.2198 16.8149 26.4914 14.4075 24.9648 12.281C24.8174 12.0756 24.6719 11.8729 24.5298 11.6724C22.8644 9.32198 21.5494 7.1554 21.8689 4.12508C21.9015 3.81675 21.8016 3.5091 21.5942 3.27867C21.3867 3.04824 21.0912 2.91666 20.7812 2.91666C20.2241 2.91666 19.5866 3.08906 18.9695 3.34831C18.3334 3.61553 17.6434 4.00678 16.9678 4.51636C15.6193 5.53346 14.271 7.06653 13.5513 9.11689C12.8333 11.1622 13.1971 13.1117 13.723 14.5297C14.0683 15.4608 13.6937 16.3814 13.13 16.6491C12.6314 16.8859 12.0348 16.6873 11.7777 16.1989L10.6004 13.9628C10.4514 13.6799 10.1861 13.4763 9.87428 13.4057C9.56246 13.335 9.2343 13.4051 8.97794 13.5962Z" fill="#333333"/>
</svg>
